<?xml version="1.0" encoding="UTF-8"?>
<svg id="Layer_2" data-name="Layer 2" xmlns="http://www.w3.org/2000/svg" viewBox="0 0 338.95 101.1">
  <g id="Layer_1-2" data-name="Layer 1">
    <path d="M98.32,55.54c-1.3,23.41-22.3,40.41-43.74,45.08-2.5.36-5.01.52-7.53.47-7.53-.14-15.03-2.14-22.03-6.14C6.02,82.95-2.98,60.95.88,39.91c.62-3.24,1.6-6.38,2.86-9.37C11.33,12.59,29.1,0,49.81,0c3.45,0,6.82.35,10.08,1.02,22.13,3.93,36.13,23.93,38.26,44.51.34,3.44.4,6.79.17,10.01Z"/>
    <path d="M338.94,49.48c.08,19.56-9.92,39.56-28.6,47.15-2.99,1.27-6.13,2.25-9.39,2.91-3.25.67-6.62,1.02-10.08,1.02s-6.82-.35-10.08-1.02c-3.25-.67-6.39-1.65-9.39-2.91-24.39-10.59-36.39-38.59-29.39-63.59C249.02,13.04,270.02.04,290.87.56c3.45,0,6.82.35,10.08,1.02,2.85.58,5.61,1.41,8.26,2.45,2.65,1.04,5.19,2.31,7.59,3.77,11.22,7.24,20.22,19.24,21.63,32.99.39,2.8.56,5.71.51,8.7Z"/>
    <path d="M219.71,49.3c-1.59,19.91-11.59,40.91-31.18,47.37-2.99,1.27-6.13,2.25-9.39,2.92-3.25.67-6.62,1.02-10.08,1.02-24.16,0-44.32-17.14-48.98-39.92-.67-3.25-1.02-6.62-1.02-10.08-.94-21.39,13.06-42.39,35.06-48.39,6-1.5,11.75-2,17.43-1.58,2.84.21,5.66.64,8.48,1.29,19.09,3.3,35.09,20.3,38.97,38.93.48,2.73.72,5.55.7,8.45Z"/>
  </g>
</svg>