<?xml version="1.0" encoding="UTF-8"?>
<svg id="Layer_2" xmlns="http://www.w3.org/2000/svg" viewBox="0 0 2037.88 222.6">
  <g id="Layer_1-2" data-name="Layer_1">
    <g>
      <path d="M0,4.8h88.2c17.2,0,32.15,2.85,44.85,8.55,12.7,5.7,22.4,13.95,29.1,24.75,6.7,10.8,10.05,23.4,10.05,37.8s-3.35,27.25-10.05,37.95c-6.7,10.7-16.4,18.95-29.1,24.75-12.7,5.8-27.65,8.7-44.85,8.7h-36v70.5H0V4.8ZM109.8,97.2c6-4.8,9-11.9,9-21.3s-3-16-9-21c-6-5-14.4-7.5-25.2-7.5h-32.4v57h32.4c10.8,0,19.2-2.4,25.2-7.2Z"/>
      <path d="M243.89,209.1c-16-9-28.2-21.85-36.6-38.55-8.4-16.7-12.6-36.35-12.6-58.95s4.2-42.3,12.6-59.1c8.4-16.8,20.6-29.75,36.6-38.85,16-9.1,34.9-13.65,56.7-13.65s40.65,4.55,56.55,13.65c15.9,9.1,28.1,22.05,36.6,38.85,8.5,16.8,12.75,36.5,12.75,59.1s-4.25,42.25-12.75,58.95c-8.5,16.7-20.7,29.55-36.6,38.55-15.9,9-34.75,13.5-56.55,13.5s-40.7-4.5-56.7-13.5ZM328.5,171.9c7.8-5.4,13.8-13.25,18-23.55,4.2-10.3,6.3-22.55,6.3-36.75s-2.1-26.75-6.3-37.05c-4.2-10.3-10.2-18.2-18-23.7-7.8-5.5-17.1-8.25-27.9-8.25s-20.4,2.75-28.2,8.25c-7.8,5.5-13.75,13.4-17.85,23.7-4.1,10.3-6.15,22.65-6.15,37.05s2.05,26.45,6.15,36.75c4.1,10.3,10.05,18.15,17.85,23.55,7.8,5.4,17.2,8.1,28.2,8.1s20.1-2.7,27.9-8.1Z"/>
      <path d="M408.59,4.8h54l34.2,140.7L531.59,4.8h43.5l34.8,140.7L643.79,4.8h54.3l-57.9,213h-54.3l-32.4-126.6-32.4,126.6h-54.6L408.59,4.8Z"/>
      <path d="M726.29,4.8h153v42.6h-100.8v42.3h97.2v42.6h-97.2v42.9h103.2v42.6h-155.4V4.8Z"/>
      <path d="M914.69,4.8h97.5c15.6,0,29.3,2.6,41.1,7.8,11.8,5.2,20.9,12.6,27.3,22.2,6.4,9.6,9.6,20.7,9.6,33.3,0,9.8-2,18.55-6,26.25-4,7.7-9.55,14-16.65,18.9-7.1,4.9-15.55,8.15-25.35,9.75l-.9-3c14.6,0,25.6,3.1,33,9.3,7.4,6.2,11.6,15.5,12.6,27.9l5.1,60.6h-53.4l-3.3-51.9c-.6-8.2-3-14.15-7.2-17.85-4.2-3.7-11.3-5.55-21.3-5.55h-39.9v75.3h-52.2V4.8ZM1028.24,93c5.7-4.6,8.55-11.1,8.55-19.5s-2.85-15.1-8.55-19.5c-5.7-4.4-13.95-6.6-24.75-6.6h-36.6v52.5h37.2c10.4,0,18.45-2.3,24.15-6.9Z"/>
      <path d="M1126.49,4.8h88.2c17.2,0,32.15,2.85,44.85,8.55,12.7,5.7,22.4,13.95,29.1,24.75,6.7,10.8,10.05,23.4,10.05,37.8s-3.35,27.25-10.05,37.95c-6.7,10.7-16.4,18.95-29.1,24.75-12.7,5.8-27.65,8.7-44.85,8.7h-36v70.5h-52.2V4.8ZM1236.29,97.2c6-4.8,9-11.9,9-21.3s-3-16-9-21c-6-5-14.4-7.5-25.2-7.5h-32.4v57h32.4c10.8,0,19.2-2.4,25.2-7.2Z"/>
      <path d="M1370.38,209.1c-16-9-28.2-21.85-36.6-38.55-8.4-16.7-12.6-36.35-12.6-58.95s4.2-42.3,12.6-59.1c8.4-16.8,20.6-29.75,36.6-38.85,16-9.1,34.9-13.65,56.7-13.65s40.65,4.55,56.55,13.65c15.9,9.1,28.1,22.05,36.6,38.85,8.5,16.8,12.75,36.5,12.75,59.1s-4.25,42.25-12.75,58.95c-8.5,16.7-20.7,29.55-36.6,38.55-15.9,9-34.75,13.5-56.55,13.5s-40.7-4.5-56.7-13.5ZM1454.98,171.9c7.8-5.4,13.8-13.25,18-23.55,4.2-10.3,6.3-22.55,6.3-36.75s-2.1-26.75-6.3-37.05c-4.2-10.3-10.2-18.2-18-23.7-7.8-5.5-17.1-8.25-27.9-8.25s-20.4,2.75-28.2,8.25c-7.8,5.5-13.75,13.4-17.85,23.7-4.1,10.3-6.15,22.65-6.15,37.05s2.05,26.45,6.15,36.75c4.1,10.3,10.05,18.15,17.85,23.55,7.8,5.4,17.2,8.1,28.2,8.1s20.1-2.7,27.9-8.1Z"/>
      <path d="M1558.78,4.8h52.2v213h-52.2V4.8Z"/>
      <path d="M1645.48,4.8h54.9l78,133.5V4.8h52.2v213h-55.2l-77.7-127.8v127.8h-52.2V4.8Z"/>
      <path d="M1922.38,47.4h-63V4.8h178.5v42.6h-63v170.4h-52.5V47.4Z"/>
    </g>
  </g>
</svg>